<svg
  xmlns="http://www.w3.org/2000/svg"
  xmlns:xlink="http://www.w3.org/1999/xlink"
  version="1.1"
  viewBox="179.1 355 641.8 237.8"
>
  <defs>
    <style>
      .cls-1 {
        fill: url(#linear-gradient);
      }
      .cls-2 {
        fill: #fff;
      }
    </style>
    <linearGradient
      id="linear-gradient"
      x1="179.1"
      y1="497.9"
      x2="820.9"
      y2="497.9"
      gradientTransform="translate(0 997.9) scale(1 -1)"
      gradientUnits="userSpaceOnUse"
    >
      <stop offset="0" stop-color="#1b06df"></stop>
      <stop offset="1" stop-color="#7e2fcd"></stop>
    </linearGradient>
  </defs>

  <!-- Text: half the width (320.9px), centered at x=500 -->
  <text
    x="340"
    y="385"
    font-size="40"
    font-family="Arial"
    fill="#000"
    text-anchor="middle"
    font-weight="bold"
    letter-spacing="0"
  >
    POWERED BY
  </text>

  <!-- Original Logo -->
  <g id="Layer_1">
    <g id="Layer_1-2">
      <g>
        <!-- Main Gradient Rectangle -->
        <rect
          class="cls-1"
          x="179.1"
          y="392.2"
          width="641.8"
          height="215.6"
          rx="51.8"
          ry="51.8"
        />

        <!-- White Paths/Text Shapes -->
        <g>
          <!-- “M” shape -->
          <path
            class="cls-2"
            d="M368.6,448.7c-31.7,0-55.4,23.1-55.4,53.8s24.1,53.8,56,53.8,23.4-3.2,32.9-9.3c8.9-5.7,15.7-13.6,19.9-23h-23.8
               c-5.9,8.4-16.8,13.5-28.6,13.5-16.8,0-29.9-10.2-33.4-26l-.3-1.2h87.7c.3-2.3.5-5.5.5-7.6h0c0-30.8-23.9-54-55.6-54h0
               M336.2,493.4l.4-1.3c4.1-15,16.7-24.7,32.1-24.7s28.5,9.9,32.3,24.7l.4,1.3h-65.2Z"
          />

          <!-- “P” shape -->
          <path
            id="Vector_8"
            class="cls-2"
            d="M268.8,475.3c-4.7,4.1-6.8,10.3-6.8,16.5v64.4h-26v-107.4h25.3v13.9l2.4-2.7
               c4.9-5.6,15.4-11.2,27.9-11.2s18.1,2.6,25.2,8.9l-13.3,21.3c-4.5-4.4-9.6-7.7-15.9-8.3c-1.9-0.2-3.7-0.3-5.6-0.2
               c-4.8,0.2-9.4,1.6-13.1,4.7h0Z"
          />

          <!-- “SATURN” shape or repeated arc -->
          <path
            id="Vector_12"
            class="cls-2"
            d="M482,556.2c27.8,0,48-13.5,48-32.1s-13.9-25.8-42.5-31c-17.9-3.1-27-8.3-27-15.3s9-12.3,20.9-12.3
               s21.6,6,21.6,13.8v0.5h24.7v-0.5c0-17.6-19.8-30.9-46.1-30.9s-45.7,12.9-45.7,30.7s14.4,26.2,40.4,30.9c19.4,3.4,28.9,8.5,28.9,15.8
               s-9.8,13.4-22.8,13.4s-24.1-6.7-24.1-15.2v-0.5h-24.7v0.5c0,18.4,20.8,32.2,48.4,32.2"
          />

          <!-- Combined shape on the right (“O” + something) -->
          <path
            id="Vector_10"
            class="cls-2"
            d="M670.6,536c-7.1,0-12.8-0.8-12.5-13.1v-74.3h-23v20.5l-1.7-2.2
               c-9.3-11.8-23.2-18.3-39-18.3c-31.3,0-54.9,23.1-54.9,53.8s23.6,53.8,54.9,53.8c14.7,0,30.9-7.2,40.2-19.7l1.2-1.6l0.5,1.9
               c3,11.1,12.8,19.4,28.2,19.4h6.2v-20.1H670.6z M596.8,536c-19.2,0-33.6-14.5-33.6-33.6s14.5-33.6,33.6-33.6s33.4,14.5,33.4,33.6
               S616,536,596.8,536z"
          />

          <!-- Far right shape -->
          <path
            class="cls-2"
            d="M764,530.6c0,0-8.1,6.7-18.2,6.2c-7.2-0.4-8.6-2.1-8.6-2.1c0,0,23.6-24.7,25.1-66
               c1.2-33.1-17.7-46-35.7-46.9c-18.2-0.9-37.9,11.9-40.8,42.3c-3.8,40.4,20.1,69.9,20.1,69.9c0,0-4.1,2.9-17.4,2.1v20.2
               c0,0,20.7,0.9,32.3-7.3c5.1,3.9,14.5,9.7,29.6,8.2c12.9-1.3,23.8-8.7,23.8-8.7l-10.3-17.8H764z M722.2,521.1
               c-5.6-7.6-13.1-25.9-13.1-47.7s3.6-27.4,16.5-26.5c12.2,0.8,14,14.8,12.8,27.7c-2,22-9.4,39.2-16.2,46.5H722.2z"
          />
        </g>
      </g>
    </g>
  </g>
</svg>
